<?xml version="1.0" encoding="UTF-8" standalone="no"?>
<svg
   xmlns:dc="http://purl.org/dc/elements/1.1/"
   xmlns:cc="http://creativecommons.org/ns#"
   xmlns:rdf="http://www.w3.org/1999/02/22-rdf-syntax-ns#"
   xmlns:svg="http://www.w3.org/2000/svg"
   xmlns="http://www.w3.org/2000/svg"
   width="250"
   height="250"
   viewBox="0 0 66.145832 66.145835"
   version="1.1"
   id="svg8">
  <defs
     id="defs2" />
  <metadata
     id="metadata5">
    <rdf:RDF>
      <cc:Work
         rdf:about="">
        <dc:format>image/svg+xml</dc:format>
        <dc:type
           rdf:resource="http://purl.org/dc/dcmitype/StillImage" />
        <dc:title></dc:title>
      </cc:Work>
    </rdf:RDF>
  </metadata>
  <g
     id="layer1"
     transform="matrix(0.42985785,0,0,0.42985785,-9.426092,-4.0047937)">
    <path
       style="fill:#284428;stroke:none;stroke-width:0.352778"
       d="m 99.064459,26.526218 c -17.392299,1.52203 -32.475313,6.65177 -44.347908,20.29753 -4.533018,5.21018 -8.176931,11.47763 -10.453794,17.99167 -11.184731,31.998712 6.722534,67.877272 39.985033,76.646272 6.757809,1.78188 13.886039,2.27259 20.81389,1.61043 29.14368,-2.78448 51.28578,-27.51526 52.55013,-56.384483 1.17193,-26.762069 -17.69886,-51.392669 -43.3779,-58.167519 -4.73499,-1.24918 -10.24749,-2.42457 -15.169451,-1.9939 m 55.738891,48.51975 h -14.81667 c -1.77165,0 -4.62068,0.54046 -6.25192,-0.21272 -1.72085,-0.79481 -2.66348,-5.20524 -3.57717,-6.84283 -2.46345,-4.41572 -5.86423,-8.35731 -9.92646,-11.37391 -19.1509,-14.22026 -48.590912,-5.17313 -55.03334,18.42946 H 43.325568 c 4.253054,-21.93078 20.756845,-39.99184 42.686111,-45.19637 24.020291,-5.70079 49.938871,5.36363 62.237411,26.85193 3.14078,5.48781 6.04626,11.96305 6.55426,18.34444 m -58.913891,-29.28055 -0.35278,-9.87778 h 0.35278 c 0,2.65515 -0.24236,5.87449 0.46496,8.44599 0.31397,1.14156 1.81681,1.87657 2.85009,1.06896 1.781531,-1.39274 0.29775,-7.53474 0.21273,-9.51495 h 0.35278 c 0.708731,3.8179 -1.36243,9.50648 3.880551,9.525 0,-2.97455 0.93945,-7.89115 -0.41592,-10.58305 -1.0989,-2.18288 -3.907371,-3.29953 -5.934081,-1.76417 -5.61693,-2.99759 -5.29167,3.86143 -5.29167,7.40833 0,1.33375 -0.3623,3.37234 0.5655,4.47396 0.80681,0.95773 2.19181,0.81372 3.31506,0.81771 m 6.702781,-1.41111 h -2.11667 l -0.35277,-9.87778 -1.763901,0.35278 v 9.525 h -1.76389 l -0.35277,-9.525 h -1.76389 c 0,2.2546 1.29046,10.30037 -2.11667,9.525 0.18556,-2.88276 -1.0474,-7.63531 0.36266,-10.20989 1.16734,-2.13169 7.985121,-2.13169 9.152471,0 1.22978,2.24561 0.66181,7.61087 0.71543,10.20989 m 4.93889,-11.28889 -2.04223,9.17222 0.18768,3.57815 6.08788,1.71352 c 0.33302,-2.65007 0.0466,-3.83657 -2.82222,-4.23334 l 0.35278,-1.41111 3.52778,0.70556 c 0.502,-2.74641 -0.22437,-3.49201 -2.82223,-4.23334 1.25766,-1.11534 2.3361,-0.6702 3.88056,-0.35277 1.0735,-4.2061 -2.85574,-4.78653 -6.35,-4.93889 m 5.64444,1.41111 -0.35277,2.11667 -3.52778,-0.70556 -0.35278,2.82222 c 4.00509,0.33048 3.05259,2.73576 -0.70556,1.76389 -0.16404,2.43547 0.42898,3.02521 2.82223,3.52778 l -0.35278,2.11667 c -1.23966,-0.34851 -4.16595,-0.46059 -4.89762,-1.61008 -1.27564,-2.00445 1.60338,-8.80124 2.0754,-11.08992 l 5.29166,1.05833 m -35.27778,2.11667 c -1.38818,0.74086 -3.032478,1.16681 -3.541889,2.83746 -1.066094,3.4956 3.212395,10.38563 7.069667,10.10726 7.405511,-0.53446 1.466497,-11.57214 -2.822222,-12.59195 v 0.35278 c 2.925939,1.60098 7.961493,11.29753 1.412522,11.38252 -2.471561,0.0321 -5.801078,-6.7176 -5.214761,-8.89783 0.404636,-1.50393 2.239433,-2.13001 3.449461,-2.83747 l -0.352778,-0.35277 m 39.15834,7.76111 -2.46945,-1.05834 c -2.35479,6.51073 6.89716,9.78253 7.55827,2.82223 0.11289,-1.18657 -0.49601,-2.42221 -0.85549,-3.52778 l 2.46945,1.05833 c 2.07786,-5.83593 -6.15562,-9.83678 -7.50323,-3.175 -0.26635,1.31551 0.46108,2.63712 0.80045,3.88056 m 5.99722,-2.46945 -1.76389,-0.70555 -1.76389,-2.11667 -1.05833,2.46944 c 3.41595,1.44502 3.87597,7.5686 -0.70556,7.2039 -2.91888,-0.23234 -4.91595,-5.02482 -1.05833,-4.38167 l -0.35278,1.76389 2.46945,-0.35278 -1.05834,0.70555 -0.35277,-1.76389 1.41111,1.05834 h 0.35278 l 0.35277,-1.76389 c -0.76376,-0.18225 -1.41957,-0.3532 -2.02,-0.90752 -5.52344,-5.09937 8.81027,-8.70113 5.54778,-1.20915 m -46.566671,-2.11666 2.822222,7.05555 2.469445,-0.70555 -3.175,-7.05556 -2.116667,0.70556 m 2.116667,0.70555 2.469444,5.64445 c -1.450975,-0.95106 -2.939697,-3.93108 -2.469444,-5.64445 m 41.627784,0.35278 h 0.35278 l 0.35277,1.41111 -0.70555,-1.41111 m 8.11389,0.35278 c -1.17052,1.86323 -0.44944,3.18272 -1.17369,4.93889 -0.86219,2.09042 -4.90115,4.53143 -4.21958,7.04885 1.25589,4.63762 7.03157,-4.19322 7.86271,-5.63774 h 0.35278 l 1.76389,1.41111 c 2.3435,-3.72999 -1.24883,-6.05748 -4.58611,-7.76111 m -60.677785,6.35 c 1.69933,3.32853 4.576586,8.31215 8.466666,5.64444 l -5.997222,-8.11389 1.763889,-1.05833 c -1.884186,-3.18072 -7.335167,-1.55808 -7.788875,2.12019 -0.270016,2.18906 2.332814,1.91121 3.555542,1.40759 m 65.969445,-2.11667 -3.7786,1.86298 -5.04084,6.25091 -1.76389,-1.05833 5.99722,-8.11389 c -1.11654,-0.69364 -1.50565,-2.62996 0.35948,-1.95362 1.51448,0.54917 2.921,2.07331 4.22663,3.01195 m -64.205556,-3.175 0.705555,1.76389 -1.411111,0.70555 c 1.120775,2.1958 7.291564,7.40587 3.880556,9.17223 l -5.291667,-7.40834 -2.469445,1.05834 c -0.92015,-2.61966 2.365375,-4.5429 4.586112,-5.29167 m 59.619446,17.63889 4.58611,-2.82222 0.35278,0.35277 c -2.19322,2.02142 -3.73309,3.05506 -2.11666,5.99723 1.99601,-0.54363 4.32046,-2.20522 4.93888,-4.23334 6.29709,-0.95426 3.57788,-6.60153 1.41112,-9.87777 -3.79448,0.98672 -11.41695,6.49675 -9.17223,10.58333 m 7.76111,-2.46945 c -0.33513,0.97755 -4.53989,5.82507 -4.96675,3.14925 -0.22331,-1.40194 2.06022,-1.97167 2.42428,-3.17253 0.85479,-2.81905 -3.72145,0.67804 -4.1603,1.08162 -2.7425,-2.37525 2.776,-5.27156 4.58611,-6.6608 0.79093,-0.60713 1.99989,-1.92991 3.11467,-1.64338 4.07353,1.04683 3.1235,7.24726 -0.99801,7.24584 m -76.905556,-6.70277 v 0.35277 l 9.172222,5.99723 -0.705556,1.76389 -4.233333,-2.46945 -1.058333,2.11667 c 1.584395,1.04951 2.79093,1.85914 2.469444,3.88055 -3.722617,-2.32586 -11.476849,-6.72923 -5.997222,-10.93611 v -0.35278 c -6.655682,3.17183 1.314238,10.01819 5.291666,11.46422 1.353609,0.49213 3.2512,-0.74471 2.528712,-2.27823 -0.51047,-1.08409 -1.798215,-1.88066 -2.528712,-2.83599 0.965024,0.54893 6.578248,3.58705 5.522384,-0.32138 -0.877711,-3.25049 -7.472857,-6.3791 -10.461272,-6.38139 m 35.277775,0.80645 c 4.17266,-0.51238 8.650821,-0.15134 12.700011,0.91651 28.22363,7.44432 33.40064,46.145462 8.81944,61.273272 -4.04001,2.48603 -8.70444,4.05871 -13.40555,4.63621 -28.637099,3.51684 -48.318112,-29.780443 -31.486838,-53.168552 2.668764,-3.7084 6.06425,-6.74335 9.967384,-9.10026 4.102103,-2.47721 8.650113,-3.97298 13.405553,-4.55718 m 41.966801,1.43227 c -1.64359,0.0254 -1.70991,2.61091 0,2.37526 1.36031,-0.18768 1.49755,-2.39854 0,-2.37526 m -78.30291,1.64183 v 0.35278 c 1.641687,1.27811 3.039745,2.03165 3.880556,-0.35278 -1.606303,-1.09784 -2.439882,-1.47531 -3.880556,0 m 2.469445,-0.70555 1.058333,1.41111 -0.352778,0.35278 c -0.827334,-0.57327 -1.270988,-0.85972 -0.705555,-1.76389 m 76.200005,0.35277 -1.05833,1.05834 0.35277,-1.05834 h 0.70556 m -1.76389,16.58056 c 3.01555,-0.83644 2.82857,-2.24755 2.11667,-4.93889 l 2.46944,2.82222 c 2.70581,-0.81103 2.72168,-2.21862 1.76389,-4.58611 l 1.41111,-0.35277 1.05834,2.82222 c 4.25732,-1.26894 1.97238,-4.97558 0.35277,-7.76111 l -8.46666,3.92959 -2.94676,2.43558 2.2412,5.62927 m 8.81945,-11.64167 2.46944,5.29167 -1.76389,0.70556 -1.41111,-3.175 c -2.55129,1.13876 -1.8221,2.26165 -1.41111,4.58611 -1.91947,0.31997 -2.4063,-0.74472 -2.82222,-2.46945 l -2.82223,1.05834 1.41112,3.52777 -1.76389,0.70556 -2.11667,-5.29167 10.23056,-4.93889 m -86.783343,2.46945 c -0.801053,-3.84175 -6.273483,-0.47625 -6.797781,2.11667 -0.469159,2.32057 1.506679,3.44805 3.270003,4.31941 1.581326,0.7814 3.837799,2.23343 5.644445,2.12548 7.117291,-0.42474 4.249913,-9.42516 -2.116667,-8.56156 m -1.411111,-0.35278 -1.058334,2.46945 1.411112,-0.35278 -0.352778,1.41111 -1.763889,-0.70556 0.705555,-1.05833 -1.411111,-0.35278 -0.705555,2.11667 7.055555,3.175 0.352778,-1.41111 -1.763889,-0.35278 v -0.35278 h 1.763889 v -0.35278 l -1.411111,-0.70555 H 58.84779 56.731124 l 1.058333,-2.46945 c 1.66504,0.39547 4.204899,1.06751 4.871367,2.85927 0.862154,2.31775 -1.34493,5.18266 -3.813034,4.52825 -1.877554,-0.49812 -6.245507,-2.18157 -7.204992,-3.93488 -1.805693,-3.29953 1.99323,-5.48605 4.735548,-4.51097 m 22.577778,18.34445 c 5.283552,-1.25801 10.590035,-0.31856 15.874995,0.35277 v -0.35277 l -11.288884,-1.76389 2.469444,-2.82223 -2.822222,0.70556 c 1.511653,-1.60373 3.494262,-2.07081 5.644442,-2.11667 v -0.35277 l -4.233331,-0.35278 v -0.35278 l 2.469441,-1.05833 -4.586108,-1.05834 v -0.35277 l 2.469448,-0.70556 v -0.35278 l -3.527781,-0.70555 v -0.35278 l 1.058333,-0.35278 c -4.077405,-2.76789 -2.711802,5.84447 -2.469444,7.76111 h -0.352778 c -0.333022,-2.26307 -3.079044,-8.45291 0.04692,-9.80263 3.367616,-1.4538 7.98019,4.89443 10.28418,6.41491 1.27494,0.84102 2.44863,-0.12348 3.77966,0.17886 1.26859,0.28786 2.08386,1.5374 2.82257,2.50331 l 1.41112,-2.11667 1.05833,3.52778 1.411111,-3.88056 h 0.35278 l 0.70556,2.46945 c 0.84172,-0.86431 1.59455,-2.16359 2.82751,-2.4952 1.36419,-0.36724 2.5333,0.61983 3.87526,-0.19226 1.95686,-1.18428 11.48751,-11.2074 11.63497,-3.66254 0.0138,0.70979 -0.0377,1.41569 -0.14817,2.11666 -0.22507,1.43052 -0.69321,2.80247 -0.90346,4.23334 h -0.35278 v -7.76111 l -2.82222,0.35277 v 0.35278 l 1.05833,0.35278 v 0.35278 l -3.175,0.70555 2.11667,1.05834 v 0.35277 c -1.60479,0.0134 -3.25967,-0.0102 -4.23334,1.41111 l 2.11667,0.70556 v 0.35278 l -4.23333,0.35278 v 0.35277 l 5.64444,1.41111 v 0.35278 l -2.82222,-0.35278 v 0.35278 l 2.82222,2.46945 -11.64166,1.76389 v 0.35277 c 5.30225,-0.67345 10.57098,-1.61572 15.875,-0.35277 2.0006,-3.44065 5.73122,-12.95012 1.37301,-15.96602 -5.73335,-3.96734 -10.09721,5.81554 -14.77857,5.93372 -3.26002,0.0825 -6.535911,-0.75353 -9.877781,-0.51929 -1.43369,0.10019 -3.20605,0.92604 -4.58611,0.29739 -4.25274,-1.93675 -6.830487,-7.26263 -12.345814,-6.24593 -6.352117,1.17123 -1.544109,13.2013 -0.0014,16.50013 m -18.226864,-13.52304 0.117616,0.23495 -0.117616,-0.23495 m 57.737979,8.58415 v 1.05833 h -0.35278 l 0.35278,-1.05833 m -3.175,0.70555 -0.35278,0.35278 0.35278,-0.35278 m -50.800004,1.41111 V 93.037637 H 48.970012 l -5.639823,-0.5655 -0.710177,-4.72616 0.352778,-10.936119 h 21.519445 m 90.663895,0 v 16.227779 h -21.51945 c 1.05199,-5.58447 1.05199,-10.64472 0,-16.227779 h 21.51945 m -105.83334,4.586109 0.705556,-1.058329 c -1.594344,1.252009 -3.184278,3.581049 -1.411111,5.291669 l 0.705555,-1.76389 c 2.7063,0.72813 2.692682,3.5119 -0.352778,3.175 0.170463,3.96452 8.617092,3.70099 8.466667,-0.35278 l -2.116667,1.05834 c -0.624416,-1.49508 -0.910131,-2.3428 0.352778,-3.52778 v -0.35278 c -1.652093,-0.40428 -3.437855,0.0451 -4.884984,-0.34078 -1.207241,-0.32209 -0.82169,-1.66088 0,-2.18335 2.058388,-1.308799 6.284101,-0.45437 5.237762,2.52413 l 1.411111,1.41111 h 0.705556 c 0.525039,-1.83233 -0.0495,-3.0353 -1.058334,-4.586109 h -0.352777 l 0.352777,1.058329 c -3.399049,-2.795059 -4.161825,-2.464149 -7.761111,-0.35278 m 90.31112,3.88056 h 0.70555 l 1.41111,-1.41111 -0.70555,-2.11667 c 1.55716,-0.65722 3.58634,-1.062919 5.28496,-0.66922 1.83198,0.42439 1.66899,1.97133 0.35948,2.78589 v 0.35278 l 1.76389,-0.35278 0.70556,1.76389 c 1.77306,-1.71062 0.18309,-4.03966 -1.41111,-5.291669 l 1.05833,1.411109 c -1.20156,-0.75671 -2.42605,-2.264829 -3.8929,-2.402059 -2.89913,-0.27058 -6.01804,3.235679 -5.27932,5.929839 m -88.900009,-5.644439 -0.352777,0.70555 0.352777,-0.70555 m 4.938889,0.35277 0.352778,0.35278 -0.352778,-0.35278 m 86.07778,0 0.35278,0.35278 -0.35278,-0.35278 m 5.29167,0 0.35278,0.35278 -0.35278,-0.35278 m -6.35,0.70556 0.35278,0.352779 -0.35278,-0.352779 m -66.675005,0.352779 v 3.175 h 1.763889 v 1.76389 h 1.763888 v 1.76389 h 1.763889 v 1.76388 h 1.411111 v 1.41112 h 10.230557 v -1.41112 h 1.41111 v -1.76388 h 1.76389 v -1.76389 h 1.76389 v -1.76389 h 1.76389 v -1.41111 h 3.175001 v 1.41111 l 1.76389,1.76389 h 1.41111 c 0.20355,1.22555 0.53834,1.56033 1.76389,1.76389 0.20355,1.22555 0.53834,1.56033 1.76389,1.76388 v 1.41112 h 9.87778 v -1.41112 h 1.76389 v -1.76388 c 1.22555,-0.20356 1.56033,-0.53834 1.76388,-1.76389 h 1.41112 l 1.76388,-1.76389 v -3.175 H 74.017235 m -24.694445,0.35277 -0.352778,0.35278 0.352778,-0.35278 m 33.161111,1.41112 v 1.41111 c 1.22555,0.20355 1.560336,0.53834 1.763889,1.76389 h 1.411109 v 1.76389 H 84.24779 l -0.352778,1.76388 -1.411111,-0.35277 v -1.41111 c -1.22555,-0.20356 -1.560336,-0.53834 -1.763889,-1.76389 h 1.763889 v -1.76389 h -1.763889 v -1.41111 h 1.763889 m 26.458339,0 v 1.41111 h -1.41111 v -1.41111 h 1.41111 m 33.16111,1.05833 v 0.35278 c 1.77271,1.84291 0.50165,3.36514 -1.76389,2.46944 0.30657,4.02943 8.29345,4.3307 8.46667,0.35278 -3.39655,0.85796 -1.52012,-2.25566 -3.2886,-3.54506 -1.0167,-0.74119 -2.3622,0.11253 -3.41418,0.37006 m -31.39722,0.35278 v 1.76389 h 1.76389 v 1.76389 h 1.76389 l -0.35278,1.76388 -1.41111,-1.76388 h -1.76389 v 1.76388 h -1.41111 v -1.76388 h 1.41111 v -1.76389 l -1.76389,-0.35278 v -1.05834 l 1.76389,-0.35277 m -53.15187,1.64641 0.117616,0.23495 -0.117616,-0.23495 m 82.5499,0 0.11783,0.23495 -0.11783,-0.23495 m -91.369345,0.35278 0.117617,0.23495 -0.117617,-0.23495 m 9.40742,-0.2353 0.352777,0.35277 -0.352777,-0.35277 m 24.341666,0 v 1.76389 h 1.763889 v -1.76389 h -1.763889 m 25.047229,1.76389 v -1.76389 c 1.66546,0.29068 1.66546,1.4732 0,1.76389 m 41.39247,-1.52859 0.11783,0.23495 -0.11783,-0.23495 m -101.011921,0.11747 0.352778,0.35278 -0.352778,-0.35278 m 4.624776,0.21978 c 1.64666,-0.62441 3.138558,1.61114 1.3202,2.38796 -1.827177,0.78034 -3.374884,-1.60902 -1.3202,-2.38796 m 91.412275,0 c 1.54623,-0.62935 3.35633,1.55822 1.55575,2.38796 -1.69333,0.78034 -3.49532,-1.59879 -1.55575,-2.38796 m -86.159273,0.133 0.352778,0.35278 -0.352778,-0.35278 m -9.525,0.35278 0.352778,0.35278 -0.352778,-0.35278 m 91.369453,0 0.35277,0.35278 -0.35277,-0.35278 m -52.211121,0.70556 -0.35278,1.76388 -1.41111,-1.41111 1.76389,-0.35277 m 6.35,0.35277 2.06516,6.59695 2.3047,3.081513 -8.60319,7.25488 c 5.99016,3.40572 13.382631,3.20604 19.402781,0 l -5.29167,-4.59282 -3.35244,-2.49555 2.04646,-3.202163 2.36432,-6.64281 c -1.72756,1.04846 -2.53013,2.9965 -2.82223,4.93889 l -4.799891,-0.36265 -3.314,-4.57624 m -41.627777,1.76389 v 0.35278 h 2.116667 l -2.116667,-0.35278 m 91.722228,0 v 0.35278 h 1.76389 l -1.76389,-0.35278 m -65.616672,2.11667 2.822222,6.350003 -5.997222,2.82222 v 0.35278 L 91.656119,97.27098 V 96.9182 h -2.11666 l 0.35278,-1.763893 1.41111,-0.35278 0.70555,-1.05833 v -0.35278 l -2.46944,-0.35278 1.05833,-0.35278 c -2.77777,-1.89759 -9.034285,-0.70555 -12.347221,-0.70555 m 29.633342,0.35278 0.70555,0.70555 -2.11666,0.35278 v 0.35278 h 1.05833 l -0.70556,1.05833 1.41111,0.35278 -0.70555,0.705553 1.05833,1.05834 h -1.76389 v 0.35278 l 16.22778,4.23333 v -0.35278 l -5.99722,-2.82222 2.82222,-6.350003 -11.99444,0.35278 m -42.68612,2.46944 c 5.628217,23.750773 36.00309,32.322913 54.68056,18.691933 4.1469,-3.02648 7.52969,-6.82836 10.07992,-11.28359 0.96802,-1.69158 2.00766,-6.37858 3.77649,-7.195613 1.63124,-0.75318 4.48027,-0.21273 6.25192,-0.21273 h 14.81667 c -0.4378,5.502983 -2.75766,10.993263 -5.20453,15.875003 -11.59369,23.13094 -38.65104,35.23968 -63.587141,29.32148 -21.944612,-5.20841 -38.429,-23.24453 -42.686111,-45.196483 H 65.19779 m 17.638889,4.938893 -5.291667,5.29167 15.169447,-7.05556 c -2.59468,-1.01282 -7.2644,1.02905 -9.87778,1.76389 m 22.577781,-2.11667 v 0.35278 l 15.52222,7.05556 -5.99722,-4.58611 0.35278,-0.70556 -9.87778,-2.11667 m -20.461111,3.88056 -5.644448,7.76111 13.405558,-10.23056 -7.76111,2.46945 m 20.461111,-2.82222 v 0.35277 l 13.40556,10.23056 -5.64445,-7.76111 -7.76111,-2.82222 M 84.24779,109.26542 94.831119,99.03486 c -5.1763,1.52259 -8.56262,5.3781 -10.583329,10.23056 M 103.2978,99.03486 v 0.35278 c 3.77119,2.57881 7.59777,6.13693 10.23055,9.87778 h 0.35278 l -2.82222,-5.99722 -7.76111,-4.23334 m 29.98611,7.05556 8.11389,4.19312 3.80541,1.02023 3.25014,-5.56613 c -2.19957,-1.10419 -3.78284,-1.22766 -4.58611,1.41112 l -1.41111,-0.35278 1.41111,-3.52778 c -2.30823,-0.83961 -3.54648,-0.5715 -4.58611,1.76389 l -1.05833,-0.35278 1.41111,-3.52778 c -4.00368,-1.59738 -4.96853,1.62102 -6.35,4.93889 m -29.28056,-3.52778 c -1.64994,3.45299 -8.288521,4.20053 -9.525001,0 l 4.58611,-1.85667 4.938891,1.85667 m -43.744449,6.70278 c 3.952664,0.45262 4.97265,-5.40491 2.041525,-7.45843 -1.735208,-1.21567 -3.633364,-0.1404 -5.216525,0.75565 -1.567709,0.88724 -3.880979,1.61255 -4.831926,3.24027 -3.478636,5.95524 5.142441,8.97572 8.006926,3.46251 m 77.611119,-7.40833 -1.41111,3.175 2.82222,1.05833 c 0.54257,-1.81927 1.24283,-2.6804 3.175,-2.11667 l -1.41111,3.52778 2.46944,1.05834 1.41111,-3.175 1.76389,0.70555 -2.11666,4.93889 c -2.07504,-0.37006 -9.74267,-3.16512 -10.29512,-5.36681 -0.34607,-1.37936 1.30069,-3.28648 1.82845,-4.51097 l 1.76389,0.70556 m -76.905563,5.99722 0.705555,-2.11667 c -1.198456,-3.37149 -7.142233,0.12277 -7.055555,2.82223 h 0.352778 l 1.411111,-1.41111 -1.411111,1.41111 v 0.35277 l 5.644444,-3.52777 -0.705555,3.52777 c -1.315579,0.76871 -3.005561,2.02318 -4.584736,2.00308 -2.219924,-0.0282 -3.716267,-2.86985 -2.710074,-4.78826 0.984638,-1.87748 5.27237,-3.98639 7.294527,-4.433 3.769501,-0.83326 5.348923,5.37386 1.058616,6.15985 m -1.999086,-1.17581 0.117616,0.23495 -0.117616,-0.23495 m 77.493539,8.58414 c 2.91112,1.29717 4.37903,3.40149 6.70277,0 l -5.64444,-3.52777 c -1.34303,-4.57835 -9.79135,-3.2057 -9.20009,1.39735 0.25894,2.01789 6.93526,7.02592 8.84731,7.54274 2.07645,0.56127 3.06811,-1.69157 1.71027,-3.08751 -0.7867,-0.80857 -1.67393,-1.47003 -2.41582,-2.32481 m -78.316675,4.23334 4.233333,-2.46945 c -2.229062,1.95439 -3.240969,2.97604 -1.411111,5.64445 1.801389,-0.76271 3.11845,-2.11279 4.586111,-3.3782 1.024819,-0.88371 2.175933,-1.74237 3.062817,-2.7686 1.928636,-2.23203 0.83573,-6.83542 -2.357261,-7.19984 -2.408485,-0.27447 -9.101985,4.94241 -9.360853,7.36317 -0.110314,1.03153 0.734413,1.99355 1.246964,2.80847 m 77.963895,-7.05556 c 2.34562,0.17533 5.28602,1.9939 4.23333,4.58611 -2.19886,-1.00718 -3.296,-3.13337 -5.64444,-1.41111 v 0.35278 l 3.88055,2.82222 -1.05833,1.76389 -9.17222,-7.05555 c 1.21743,-3.58811 6.8834,-6.50205 7.76111,-1.05834 m -75.847229,7.40834 v -0.35278 l 3.175,-2.82222 v -0.35278 l -1.411111,-1.41111 h -0.352778 l -2.822222,2.82222 c -2.81432,-2.4377 5.781675,-9.7028 8.66775,-7.54839 4.737453,3.53625 -4.179323,11.64661 -7.256639,9.66506 m 71.966669,-8.81945 -1.05833,2.11667 2.11667,1.41111 1.41111,-2.11667 -2.46945,-1.41111 m -68.791669,2.11667 1.411111,2.11666 h 0.352778 c 1.497895,-1.35748 2.035528,-1.99778 1.058334,-3.88055 l -2.822223,1.76389 m 69.850009,-1.05834 0.70555,1.05834 -0.70555,-1.05834 m -67.380564,1.05834 0.352778,0.35278 -1.411112,1.41111 -0.352777,-1.05834 1.411111,-0.70555 m 58.913894,7.05555 c 0.57926,1.16276 1.31445,2.15195 2.11667,3.175 0.54962,0.70062 1.07526,1.42628 1.6457,2.10997 0.96662,1.15781 4.87927,2.7118 4.24357,-0.34784 -0.51929,-2.49837 -6.27239,-5.63951 -3.77261,-8.11213 -1.48272,-3.78248 -6.47806,-1.69509 -7.69902,1.47109 -0.87171,2.26024 2.24931,2.33891 3.46569,1.70391 m -48.683339,2.11667 c 3.112206,-2.60632 -0.92463,-8.07085 -4.166658,-6.94761 -1.974144,0.68369 -0.740128,2.78307 -1.053747,4.12539 -0.370417,1.58679 -7.037458,8.01193 -2.538942,8.75735 3.50767,0.58138 3.779308,-7.96501 7.759347,-5.93513 m 50.447229,-7.40833 0.006,3.62832 4.93325,7.30779 -1.76389,0.70555 -5.29167,-7.40833 -2.46944,1.05833 -0.70556,-1.05833 5.29167,-4.23333 m -50.094451,5.64444 -2.469444,-1.05833 c -0.931686,2.21474 -2.636309,4.50109 -4.238625,6.29602 -0.52705,0.59091 -1.928284,1.38113 -2.100086,0 -0.288925,-2.32762 3.927122,-5.95453 4.9276,-8.05991 -1.175456,-0.66993 -1.142295,-1.23367 -0.705556,-2.46945 2.146653,0.9077 5.513211,2.65219 4.586111,5.29167 m 42.333341,8.11389 v 0.35278 c -3.71369,1.31692 0.0416,4.16983 2.46944,4.09328 3.85269,-0.12171 4.59246,-4.22945 2.48144,-6.81743 -0.85654,-1.05022 -2.34809,-1.3335 -3.53977,-1.86196 l 2.11667,-1.05834 c -3.054,-6.7377 -12.09746,0.0974 -6.5652,4.203 0.85549,0.635 2.02248,0.85372 3.03742,1.08867 m -38.098596,-7.82249 c -4.964995,0.59619 -8.123062,14.69707 -0.359481,13.53784 4.696176,-0.70097 7.860946,-14.43849 0.359481,-13.53784 m 39.862486,2.17805 -1.76389,0.70555 -0.35278,-1.05833 -2.11667,0.70555 0.70556,2.46945 c 1.33738,-0.31574 2.84268,-1.12042 4.19629,-0.48825 2.22356,1.03823 3.15207,4.59952 1.04846,6.14328 -2.55588,1.87536 -6.63328,-0.83503 -3.12808,-2.12725 l 0.35277,1.05833 1.41111,-0.35278 -1.41111,-1.41111 1.41111,-0.35278 -0.35277,-1.41111 c -0.78917,0.32138 -1.61502,0.77999 -2.4698,0.88759 -8.5464,1.07738 0.73589,-12.89756 2.4698,-4.76814 m -39.510767,-1.7907 c 6.652326,-10e-4 2.104672,11.87873 -1.765653,11.67235 -6.370461,-0.33972 -2.080683,-11.67165 1.765653,-11.67235 m -0.353131,1.7907 -3.175,7.05555 2.116667,1.05833 3.175,-7.05555 -2.116667,-1.05833 m 34.572228,12.7 c -0.83961,-2.94288 -1.69051,-3.04871 -4.58611,-2.82223 0.70167,-1.14794 2.09373,-1.02199 2.79858,-2.02071 1.91206,-2.70898 -2.55834,-2.72873 -3.85691,-2.5654 v -1.41111 l 3.175,-0.35278 c -0.27729,-3.3595 -4.80907,-4.81647 -7.04074,-1.85631 -0.59267,0.78634 -0.0808,2.07116 0.10865,2.91465 0.47555,2.12019 0.84067,7.95126 2.80564,9.1574 1.5166,0.93063 5.04437,-0.51717 6.59589,-1.04351 m -4.23333,-12.34723 0.35277,2.11667 c -2.35796,0.49495 -3.10303,1.08373 -2.82222,3.52778 l 3.52778,-0.70556 c 0.34607,2.05952 -1.02553,2.32128 -2.82222,2.46945 l 0.35278,2.82222 3.52777,-0.70556 0.35278,2.11667 -5.29167,1.05833 -1.80869,-7.76111 -0.28434,-3.27095 4.91526,-1.66794 m 8.46666,0.70556 -1.41111,1.05833 1.41111,-1.05833 m -37.747224,0.70555 c -0.293511,1.95863 -1.038931,4.61399 -2.822222,5.64445 l 2.116666,-5.64445 h 0.705556 m 14.463893,13.40556 0.35277,-9.87778 h 0.35278 c 0,2.49238 -0.86677,5.71394 -0.24059,8.10719 0.32737,1.25165 1.99672,2.34985 3.20287,1.40758 1.572331,-1.22837 0.565501,-7.61471 0.565501,-9.51477 h 0.35278 c 0,3.85234 -1.621371,9.85944 3.52778,9.87778 0,-3.01202 1.004,-8.22113 -0.36266,-10.93576 -1.05304,-2.09197 -3.68511,-3.24132 -5.634571,-1.76424 -7.15327,-3.81741 -8.31356,12.62698 -2.11666,12.7 m 6.702781,-1.05833 h -1.76389 v -9.87778 h -2.116671 v 9.525 h -2.11667 l 0.35278,-9.525 h -2.11667 v 9.525 h -2.11702 c 0,-2.79435 -0.94792,-7.71984 0.41592,-10.20974 1.18145,-2.15724 8.272641,-2.15336 9.451981,0 1.44674,2.6416 0.01,7.63764 0.01,10.56252 m 17.99166,-8.81945 v 1.41111 h 0.35278 0.35278 z"
       id="path917" />
  </g>
</svg>
